<svg xmlns="http://www.w3.org/2000/svg" xmlns:xlink="http://www.w3.org/1999/xlink" width="500" zoomAndPan="magnify" viewBox="0 0 375 374.999991" height="500" preserveAspectRatio="xMidYMid meet" version="1.0"><defs><g/><clipPath id="4a1b0f5548"><path d="M 236.109375 206 L 255.609375 206 L 255.609375 225.5 L 236.109375 225.5 Z M 236.109375 206 " clip-rule="nonzero"/></clipPath><clipPath id="d3748ffe17"><path d="M 0.558594 41 L 137 41 L 137 182 L 0.558594 182 Z M 0.558594 41 " clip-rule="nonzero"/></clipPath><clipPath id="45b015e48d"><rect x="0" width="145" y="0" height="231"/></clipPath><clipPath id="6731f39230"><rect x="0" width="74" y="0" height="230"/></clipPath><clipPath id="6bffefcfcb"><path d="M 10 99 L 100 99 L 100 190 L 10 190 Z M 10 99 " clip-rule="nonzero"/></clipPath><clipPath id="2e448b61bc"><rect x="0" width="100" y="0" height="237"/></clipPath><clipPath id="7e73dbfa13"><path d="M 0.441406 43 L 120 43 L 120 182 L 0.441406 182 Z M 0.441406 43 " clip-rule="nonzero"/></clipPath><clipPath id="56c3d8235e"><rect x="0" width="127" y="0" height="229"/></clipPath></defs><g clip-path="url(#4a1b0f5548)"><path fill="#f6d636" d="M 236.125 216.105469 C 236.324219 215.972656 236.558594 215.9375 236.78125 215.882812 C 237.214844 215.761719 237.664062 215.710938 238.089844 215.558594 C 238.757812 215.320312 239.441406 215.113281 240.082031 214.808594 C 240.796875 214.476562 241.476562 214.085938 242.121094 213.636719 C 242.410156 213.441406 242.683594 213.222656 242.9375 212.980469 C 243.414062 212.519531 243.8125 211.992188 244.132812 211.40625 C 244.464844 210.78125 244.660156 210.113281 244.871094 209.449219 C 245.117188 208.671875 245.320312 207.886719 245.484375 207.089844 C 245.539062 206.828125 245.558594 206.5625 245.601562 206.300781 C 245.625 206.195312 245.675781 206.109375 245.757812 206.042969 C 245.816406 205.996094 245.875 206.03125 245.917969 206.125 C 246.027344 206.378906 246.117188 206.640625 246.1875 206.90625 C 246.378906 207.609375 246.597656 208.304688 246.84375 208.988281 C 247.035156 209.496094 247.265625 209.988281 247.527344 210.464844 C 247.667969 210.734375 248.527344 212.238281 248.710938 212.464844 C 249.15625 213.035156 249.699219 213.480469 250.34375 213.804688 C 250.671875 213.960938 251.007812 214.089844 251.359375 214.183594 C 251.828125 214.316406 252.296875 214.488281 252.765625 214.628906 C 253.359375 214.808594 253.960938 214.945312 254.574219 215.035156 C 254.886719 215.089844 255.195312 215.167969 255.496094 215.261719 C 255.582031 215.285156 255.597656 215.347656 255.539062 215.417969 C 255.496094 215.464844 255.441406 215.496094 255.378906 215.511719 C 255.160156 215.59375 254.941406 215.660156 254.714844 215.710938 C 254.097656 215.878906 253.496094 216.089844 252.914062 216.355469 C 252.105469 216.699219 251.363281 217.148438 250.679688 217.707031 C 250.445312 217.898438 250.191406 218.082031 249.945312 218.265625 C 249.582031 218.542969 249.316406 218.902344 249.042969 219.265625 C 247.988281 220.613281 246.839844 224.914062 246.769531 225.265625 C 246.765625 225.300781 246.753906 225.335938 246.738281 225.371094 C 246.71875 225.417969 246.699219 225.492188 246.644531 225.492188 C 246.585938 225.476562 246.539062 225.441406 246.515625 225.382812 C 246.128906 224.613281 245.710938 223.863281 245.269531 223.128906 C 244.863281 222.453125 244.476562 221.765625 244.035156 221.113281 C 243.648438 220.519531 243.230469 219.949219 242.777344 219.402344 C 242.152344 218.664062 241.40625 218.082031 240.535156 217.664062 C 239.945312 217.375 239.335938 217.140625 238.703125 216.960938 C 238.164062 216.816406 237.628906 216.628906 237.085938 216.472656 C 236.835938 216.402344 236.589844 216.292969 236.316406 216.296875 C 236.242188 216.300781 236.183594 216.234375 236.125 216.1875 Z M 236.125 216.105469 " fill-opacity="1" fill-rule="nonzero"/></g><g transform="matrix(1, 0, 0, 1, 160, 87)"><g clip-path="url(#45b015e48d)"><g clip-path="url(#d3748ffe17)"><g fill="#d4a8d1" fill-opacity="1"><g transform="translate(0.569852, 182.700706)"><g><path d="M 33.140625 -124.390625 C 38.535156 -111.867188 45.46875 -98.851562 53.9375 -85.34375 C 62.34375 -71.820312 71.332031 -59.726562 80.90625 -49.0625 C 85.769531 -61.820312 89.710938 -75.453125 92.734375 -89.953125 C 95.742188 -104.390625 97.6875 -117.988281 98.5625 -130.75 C 98.851562 -135.613281 100.273438 -138.628906 102.828125 -139.796875 C 105.316406 -140.898438 108.5625 -141.25 112.5625 -140.84375 C 115.226562 -140.550781 118.21875 -139.941406 121.53125 -139.015625 C 124.832031 -138.085938 127.644531 -136.835938 129.96875 -135.265625 C 131.875 -133.878906 133.265625 -131.910156 134.140625 -129.359375 C 135.242188 -125.929688 135.851562 -121.695312 135.96875 -116.65625 C 136.082031 -110.800781 135.5 -103.378906 134.21875 -94.390625 C 132.882812 -85.398438 131.117188 -76.117188 128.921875 -66.546875 C 126.660156 -56.972656 124.109375 -47.78125 121.265625 -38.96875 C 118.421875 -30.15625 115.550781 -23.023438 112.65625 -17.578125 C 111.144531 -14.785156 109.285156 -11.941406 107.078125 -9.046875 C 104.878906 -6.148438 102.1875 -4.238281 99 -3.3125 C 93.257812 -1.625 86.035156 -1.882812 77.328125 -4.09375 C 68.578125 -6.238281 62.082031 -9.253906 57.84375 -13.140625 C 53.207031 -17.316406 48.078125 -23.085938 42.453125 -30.453125 C 36.765625 -37.753906 31.285156 -45.550781 26.015625 -53.84375 C 20.671875 -62.082031 15.882812 -70.234375 11.65625 -78.296875 C 7.363281 -86.296875 4.347656 -93.050781 2.609375 -98.5625 C 0.984375 -103.488281 0.144531 -107.691406 0.09375 -111.171875 C 0.03125 -113.835938 0.664062 -116.160156 2 -118.140625 C 3.5625 -120.398438 5.765625 -122.515625 8.609375 -124.484375 C 11.390625 -126.453125 14.03125 -128.046875 16.53125 -129.265625 C 20.0625 -130.953125 23.222656 -131.707031 26.015625 -131.53125 C 28.796875 -131.300781 31.171875 -128.921875 33.140625 -124.390625 Z M 33.140625 -124.390625 "/></g></g></g></g></g></g><g transform="matrix(1, 0, 0, 1, 130, 91)"><g clip-path="url(#6731f39230)"><g fill="#cb69bd" fill-opacity="1"><g transform="translate(1.100662, 182.450764)"><g><path d="M 34.015625 -77.9375 C 40.910156 -82.289062 47.492188 -84.378906 53.765625 -84.203125 C 60.023438 -83.972656 64.691406 -82.347656 67.765625 -79.328125 C 70.835938 -76.316406 71.210938 -72.023438 68.890625 -66.453125 C 66.578125 -60.890625 63.273438 -58.601562 58.984375 -59.59375 C 54.691406 -60.570312 50.28125 -60.164062 45.75 -58.375 C 41.226562 -56.570312 38.535156 -51.84375 37.671875 -44.1875 C 36.796875 -36.476562 37.835938 -27.316406 40.796875 -16.703125 C 41.203125 -15.304688 41.640625 -13.859375 42.109375 -12.359375 C 42.515625 -10.785156 42.773438 -9.273438 42.890625 -7.828125 C 42.941406 -5.097656 41.78125 -3.15625 39.40625 -2 C 36.96875 -0.84375 34.15625 -0.175781 30.96875 0 C 27.78125 0.175781 24.617188 -0.0234375 21.484375 -0.609375 C 18.359375 -1.191406 16.15625 -1.890625 14.875 -2.703125 C 12.5 -4.148438 10.726562 -6.296875 9.5625 -9.140625 C 8.34375 -11.972656 7.390625 -14.753906 6.703125 -17.484375 C 5.367188 -22.703125 4.320312 -29.34375 3.5625 -37.40625 C 2.8125 -45.40625 2.4375 -52.363281 2.4375 -58.28125 C 2.375 -64.132812 2.578125 -69.238281 3.046875 -73.59375 C 3.453125 -77.945312 4.320312 -81.398438 5.65625 -83.953125 C 6.8125 -86.035156 8.234375 -87.453125 9.921875 -88.203125 C 11.953125 -89.128906 14.328125 -89.679688 17.046875 -89.859375 C 19.710938 -90.035156 22.117188 -90.007812 24.265625 -89.78125 C 27.398438 -89.425781 29.867188 -88.523438 31.671875 -87.078125 C 33.460938 -85.628906 34.066406 -82.785156 33.484375 -78.546875 Z M 34.015625 -77.9375 "/></g></g></g></g></g><g transform="matrix(1, 0, 0, 1, 275, 82)"><g clip-path="url(#2e448b61bc)"><g clip-path="url(#6bffefcfcb)"><g fill="#f8def8" fill-opacity="1"><g transform="translate(13.895487, 189.889195)"><g><path d="M 3.796875 -50.984375 C 6.878906 -58.046875 10.367188 -63.707031 14.265625 -67.96875 C 15.847656 -69.632812 16.859375 -70.6875 17.296875 -71.125 C 23.566406 -77.40625 30.851562 -81.925781 39.15625 -84.6875 C 46.195312 -87.0625 53.164062 -87.550781 60.0625 -86.15625 C 63.3125 -85.4375 66.609375 -83.960938 69.953125 -81.734375 C 73.296875 -79.453125 75.875 -76.894531 77.6875 -74.0625 C 79.632812 -70.820312 81.007812 -66.664062 81.8125 -61.59375 C 82.945312 -54.113281 82.695312 -47.300781 81.0625 -41.15625 C 80.09375 -37.425781 78.535156 -33.78125 76.390625 -30.21875 C 74.234375 -26.582031 71.972656 -23.320312 69.609375 -20.4375 C 66.054688 -16.132812 61.941406 -12.40625 57.265625 -9.25 C 52.597656 -6.101562 47.472656 -4.082031 41.890625 -3.1875 C 36.078125 -2.394531 30.535156 -2.703125 25.265625 -4.109375 C 21.066406 -5.210938 17.175781 -6.898438 13.59375 -9.171875 C 9.96875 -11.378906 7.101562 -14.363281 5 -18.125 C 2.851562 -21.75 1.523438 -26.046875 1.015625 -31.015625 C 0.265625 -38.109375 1.191406 -44.765625 3.796875 -50.984375 Z M 27.15625 -40.40625 C 27.394531 -36.75 29.726562 -33.09375 34.15625 -29.4375 C 38.582031 -25.769531 42.863281 -25.125 47 -27.5 C 49.632812 -29 51.191406 -30.988281 51.671875 -33.46875 C 52.085938 -35.875 51.8125 -38.351562 50.84375 -40.90625 C 48.601562 -46.6875 43.96875 -49.957031 36.9375 -50.71875 C 29.914062 -51.476562 26.65625 -48.039062 27.15625 -40.40625 Z M 27.15625 -40.40625 "/></g></g></g></g></g></g><g transform="matrix(1, 0, 0, 1, 7, 72)"><g clip-path="url(#56c3d8235e)"><g clip-path="url(#7e73dbfa13)"><g fill="#822e7d" fill-opacity="1"><g transform="translate(0.652724, 181.95621)"><g><path d="M 76.890625 -32.703125 C 72.546875 -31.140625 66.546875 -29.804688 58.890625 -28.703125 C 51.171875 -27.597656 44.703125 -27.191406 39.484375 -27.484375 C 38.148438 -21.160156 37.140625 -15.445312 36.453125 -10.34375 C 35.691406 -5.414062 34.007812 -2.519531 31.40625 -1.65625 C 28.738281 -0.78125 25.460938 -0.691406 21.578125 -1.390625 C 18.910156 -1.859375 15.976562 -2.703125 12.78125 -3.921875 C 9.539062 -5.078125 6.847656 -6.523438 4.703125 -8.265625 C 2.898438 -9.773438 1.679688 -11.863281 1.046875 -14.53125 C 0.523438 -16.5625 0.234375 -18.707031 0.171875 -20.96875 C 0.0546875 -23.164062 0.0546875 -25.3125 0.171875 -27.40625 C 0.460938 -33.144531 1.625 -40.445312 3.65625 -49.3125 C 5.6875 -58.1875 8.207031 -67.289062 11.21875 -76.625 C 14.175781 -85.96875 17.453125 -94.929688 21.046875 -103.515625 C 24.585938 -112.097656 28.039062 -119 31.40625 -124.21875 C 33.082031 -126.882812 35.140625 -129.578125 37.578125 -132.296875 C 40.015625 -134.960938 42.882812 -136.644531 46.1875 -137.34375 C 49.488281 -138.039062 53.867188 -137.953125 59.328125 -137.078125 C 64.773438 -136.210938 68.863281 -134.648438 71.59375 -132.390625 C 76.34375 -129.835938 81.296875 -124.097656 86.453125 -115.171875 C 91.554688 -106.234375 96.285156 -96.398438 100.640625 -85.671875 C 104.984375 -74.890625 108.722656 -64.367188 111.859375 -54.109375 C 114.929688 -43.835938 116.816406 -36.148438 117.515625 -31.046875 C 118.210938 -25.941406 118.328125 -21.648438 117.859375 -18.171875 C 117.335938 -15.273438 116.265625 -13.101562 114.640625 -11.65625 C 112.609375 -9.6875 110.054688 -7.976562 106.984375 -6.53125 C 103.910156 -5.070312 101.070312 -4 98.46875 -3.3125 C 94.632812 -2.257812 91.359375 -2.082031 88.640625 -2.78125 C 85.910156 -3.414062 84.023438 -6.140625 82.984375 -10.953125 C 81.421875 -17.390625 79.390625 -24.640625 76.890625 -32.703125 Z M 43.671875 -44.453125 C 52.535156 -44.335938 61.8125 -45.4375 71.5 -47.75 C 67.03125 -59.46875 61.984375 -70.628906 56.359375 -81.234375 C 51.546875 -69.929688 47.316406 -57.671875 43.671875 -44.453125 Z M 43.671875 -44.453125 "/></g></g></g></g></g></g></svg>