<svg xmlns="http://www.w3.org/2000/svg" xmlns:xlink="http://www.w3.org/1999/xlink" width="500" zoomAndPan="magnify" viewBox="0 0 375 374.999991" height="500" preserveAspectRatio="xMidYMid meet" version="1.0"><defs><clipPath id="bee06e90a2"><path d="M 88.773438 183 L 210 183 L 210 307.972656 L 88.773438 307.972656 Z M 88.773438 183 " clip-rule="nonzero"/></clipPath><clipPath id="7a012d3ea7"><path d="M 117 248 L 209 248 L 209 307.972656 L 117 307.972656 Z M 117 248 " clip-rule="nonzero"/></clipPath></defs><path fill="#ffffff" d="M 231.382812 157.746094 C 236.609375 160.785156 242.890625 161.300781 248.53125 163.472656 C 254.421875 165.742188 259.503906 169.796875 263.6875 174.53125 C 267.871094 179.261719 271.210938 184.675781 274.335938 190.167969 C 279.320312 198.839844 281.984375 209.113281 280.640625 219.046875 C 279.296875 228.980469 273.734375 238.449219 265.222656 243.71875 C 261.070312 246.289062 256.367188 247.824219 251.644531 249.058594 C 240.554688 251.957031 228.699219 253.28125 217.703125 250.046875 C 212.828125 254.421875 206.539062 257.492188 200.164062 257.03125 C 193.792969 256.570312 187.609375 252.070312 186.199219 245.824219 C 180.765625 253.894531 169.480469 258.039062 160.105469 254.894531 C 154.792969 253.113281 150.332031 249.347656 146.789062 245 C 140.214844 236.9375 136.464844 226.609375 136.328125 216.203125 C 136.191406 205.792969 139.667969 195.371094 145.566406 187.734375 C 173.523438 175.59375 201.480469 163.453125 231.382812 157.746094 Z M 231.382812 157.746094 " fill-opacity="1" fill-rule="nonzero"/><path fill="#373737" d="M 280.292969 207.128906 C 277.371094 204.25 272.898438 203.402344 268.851562 204.050781 C 264.808594 204.703125 261.097656 206.664062 257.589844 208.792969 C 243.03125 217.617188 230.523438 229.820312 221.328125 244.164062 C 214.410156 235.273438 203.835938 229.332031 192.660156 228.046875 C 197.378906 219.519531 197.644531 208.675781 193.355469 199.921875 C 188.863281 201.085938 184.152344 201.027344 179.542969 201.582031 C 174.933594 202.140625 170.164062 203.453125 166.898438 206.761719 C 163.632812 210.066406 162.503906 215.824219 165.472656 219.398438 C 159.1875 227.074219 152.902344 234.746094 146.617188 242.421875 C 140.207031 238.089844 136.980469 230.140625 136.492188 222.410156 C 136.003906 214.675781 137.878906 207.011719 139.761719 199.496094 C 159.292969 205.699219 180.414062 202.371094 200.621094 198.988281 C 223.683594 195.132812 247.566406 190.949219 266.839844 177.695312 C 273.742188 186.617188 278.785156 196.976562 280.292969 207.128906 Z M 280.292969 207.128906 " fill-opacity="1" fill-rule="nonzero"/><path fill="#101018" d="M 232.367188 252.804688 C 227.292969 252.804688 221.886719 252.421875 216.171875 251.652344 C 215.40625 251.546875 214.871094 250.84375 214.972656 250.078125 C 215.078125 249.308594 215.789062 248.773438 216.542969 248.875 C 245.738281 252.816406 266.453125 246.386719 274.886719 230.773438 C 282.925781 215.886719 278.65625 193.371094 264.738281 177.242188 C 264.234375 176.65625 264.296875 175.769531 264.882812 175.265625 C 265.464844 174.761719 266.347656 174.824219 266.851562 175.410156 C 281.503906 192.386719 285.914062 216.234375 277.34375 232.105469 C 270.015625 245.675781 254.308594 252.804688 232.367188 252.804688 Z M 232.367188 252.804688 " fill-opacity="1" fill-rule="nonzero"/><path fill="#ffffff" d="M 170.980469 254.703125 C 174.21875 254.199219 177.453125 253.171875 180.03125 251.140625 C 182.988281 248.8125 184.902344 245.203125 185.175781 241.445312 " fill-opacity="1" fill-rule="nonzero"/><path fill="#373737" d="M 160.976562 218.222656 C 160.976562 218.222656 183.324219 227.800781 185.019531 239.410156 C 186.714844 251.019531 176.253906 253.925781 176.253906 253.925781 C 176.253906 253.925781 161.800781 261.792969 146.105469 244.140625 C 130.410156 226.488281 156.359375 215.046875 160.976562 218.222656 Z M 160.976562 218.222656 " fill-opacity="1" fill-rule="nonzero"/><path fill="#101018" d="M 168.390625 256.894531 C 156.945312 256.894531 144.972656 249.195312 139.261719 237.175781 C 134.019531 226.140625 133.792969 212.742188 138.613281 198.433594 C 138.859375 197.699219 139.648438 197.304688 140.382812 197.554688 C 141.113281 197.800781 141.507812 198.59375 141.261719 199.328125 C 136.679688 212.933594 136.859375 225.605469 141.785156 235.972656 C 148.242188 249.5625 163.304688 257.167969 175.347656 252.933594 C 177.691406 252.109375 181.855469 250.109375 183.421875 245.957031 C 185.378906 240.761719 182.320312 234.800781 178.421875 231.199219 C 176.132812 229.085938 173.554688 227.453125 170.820312 225.722656 C 168.582031 224.308594 166.269531 222.84375 164.144531 221.097656 C 163.546875 220.605469 163.460938 219.722656 163.949219 219.125 C 164.441406 218.53125 165.320312 218.445312 165.914062 218.929688 C 167.90625 220.570312 170.148438 221.988281 172.3125 223.359375 C 175.03125 225.078125 177.839844 226.855469 180.316406 229.140625 C 184.90625 233.378906 188.453125 240.527344 186.035156 246.945312 C 184.070312 252.160156 179.078125 254.589844 176.273438 255.574219 C 173.734375 256.46875 171.074219 256.894531 168.390625 256.894531 Z M 168.390625 256.894531 " fill-opacity="1" fill-rule="nonzero"/><path fill="#373737" d="M 156.011719 101.378906 C 143.273438 94.625 129.757812 96.089844 121.335938 103.625 C 112.914062 111.15625 109.648438 123.429688 112.445312 134.019531 C 113.90625 139.546875 117.390625 145.039062 122.492188 147.355469 C 122.929688 147.554688 123.265625 147.890625 123.472656 148.320312 C 125.273438 152.066406 129.5625 154.535156 133.996094 154.917969 C 141.972656 150.195312 147.285156 141.894531 149.851562 133.1875 C 152.421875 124.476562 155.785156 116.996094 156.011719 101.378906 Z M 156.011719 101.378906 " fill-opacity="1" fill-rule="nonzero"/><path fill="#101018" d="M 122.488281 148.753906 C 122.296875 148.753906 122.101562 148.714844 121.914062 148.628906 C 116.894531 146.351562 112.847656 141.023438 111.09375 134.378906 C 108.097656 123.023438 111.839844 110.242188 120.40625 102.578125 C 128.8125 95.0625 145.121094 92.023438 156.8125 100.230469 C 157.445312 100.675781 157.597656 101.550781 157.152344 102.183594 C 156.710938 102.8125 155.839844 102.964844 155.207031 102.523438 C 144.636719 95.101562 129.878906 97.859375 122.265625 104.667969 C 114.464844 111.648438 111.058594 123.300781 113.796875 133.664062 C 115.316406 139.414062 118.867188 144.171875 123.066406 146.078125 C 123.769531 146.398438 124.082031 147.230469 123.761719 147.933594 C 123.53125 148.449219 123.019531 148.753906 122.488281 148.753906 Z M 122.488281 148.753906 " fill-opacity="1" fill-rule="nonzero"/><path fill="#ffffff" d="M 146.171875 202.136719 C 136.621094 201.414062 127.863281 195.507812 122.59375 187.496094 C 117.324219 179.488281 115.335938 169.59375 115.886719 160.019531 C 116.4375 150.398438 120.882812 135.636719 121.28125 134.691406 C 131.933594 109.433594 140.378906 102.574219 152.746094 90.328125 C 153.179688 89.898438 188.445312 67.875 221.984375 80.53125 C 222.480469 80.71875 221.148438 79.257812 221.644531 79.445312 C 260.632812 94.15625 269.90625 119.046875 275.304688 131.4375 C 279.136719 140.230469 280.699219 150.199219 278.527344 159.542969 C 276.359375 168.886719 270.1875 177.46875 260.59375 182.96875 C 223.390625 193.742188 185 205.078125 146.171875 202.136719 Z M 146.171875 202.136719 " fill-opacity="1" fill-rule="nonzero"/><path fill="#373737" d="M 116.683594 155.675781 C 114.378906 158.992188 114.09375 164.941406 116.742188 168.703125 C 119.042969 171.972656 122.570312 173.175781 126.621094 172.574219 C 130.675781 171.976562 134.300781 169.710938 137.308594 166.984375 C 140.519531 164.074219 143.296875 160.246094 143.269531 155.996094 C 143.25 152.632812 141.496094 149.058594 138.371094 147.636719 C 130.050781 143.839844 119.332031 151.867188 116.683594 155.675781 Z M 116.683594 155.675781 " fill-opacity="1" fill-rule="nonzero"/><path fill="#373737" d="M 222.214844 140.742188 C 225.785156 143.695312 228.019531 148.621094 226.4375 152.941406 C 225.0625 156.695312 221.066406 159.171875 216.996094 159.648438 C 212.929688 160.125 208.839844 158.878906 205.230469 157.03125 C 201.371094 155.054688 197.703125 152.078125 196.625 147.96875 C 195.769531 144.71875 196.539062 140.808594 199.1875 138.621094 C 206.242188 132.792969 218.640625 137.789062 222.214844 140.742188 Z M 222.214844 140.742188 " fill-opacity="1" fill-rule="nonzero"/><path fill="#ffb1b4" d="M 122.363281 170.5 C 121.882812 167.378906 119.273438 165.117188 116.246094 164.96875 C 115.8125 164.949219 114.925781 165.039062 114.925781 165.039062 L 116.914062 177.953125 C 116.914062 177.953125 117.507812 177.839844 117.789062 177.753906 C 120.863281 176.835938 122.867188 173.765625 122.363281 170.5 Z M 122.363281 170.5 " fill-opacity="1" fill-rule="nonzero"/><path fill="#ffb1b4" d="M 232.542969 156.925781 C 232.542969 157.355469 232.5 157.777344 232.417969 158.199219 C 232.332031 158.621094 232.210938 159.027344 232.046875 159.425781 C 231.882812 159.820312 231.679688 160.195312 231.445312 160.554688 C 231.207031 160.910156 230.933594 161.242188 230.632812 161.542969 C 230.328125 161.847656 230 162.117188 229.644531 162.355469 C 229.289062 162.59375 228.914062 162.796875 228.515625 162.960938 C 228.121094 163.125 227.714844 163.246094 227.292969 163.332031 C 226.875 163.414062 226.449219 163.457031 226.023438 163.457031 C 225.59375 163.457031 225.167969 163.414062 224.75 163.332031 C 224.328125 163.246094 223.921875 163.125 223.527344 162.960938 C 223.132812 162.796875 222.753906 162.59375 222.398438 162.355469 C 222.042969 162.117188 221.714844 161.847656 221.410156 161.542969 C 221.109375 161.242188 220.839844 160.910156 220.601562 160.554688 C 220.363281 160.195312 220.160156 159.820312 219.996094 159.425781 C 219.832031 159.027344 219.710938 158.621094 219.625 158.199219 C 219.542969 157.777344 219.5 157.355469 219.5 156.925781 C 219.5 156.496094 219.542969 156.070312 219.625 155.648438 C 219.710938 155.230469 219.832031 154.820312 219.996094 154.425781 C 220.160156 154.027344 220.363281 153.652344 220.601562 153.296875 C 220.839844 152.9375 221.109375 152.609375 221.410156 152.304688 C 221.714844 152.003906 222.042969 151.730469 222.398438 151.492188 C 222.753906 151.253906 223.132812 151.054688 223.527344 150.890625 C 223.921875 150.726562 224.328125 150.601562 224.75 150.519531 C 225.167969 150.433594 225.59375 150.390625 226.023438 150.390625 C 226.449219 150.390625 226.875 150.433594 227.292969 150.519531 C 227.714844 150.601562 228.121094 150.726562 228.515625 150.890625 C 228.914062 151.054688 229.289062 151.253906 229.644531 151.492188 C 230 151.730469 230.328125 152.003906 230.632812 152.304688 C 230.933594 152.609375 231.207031 152.9375 231.445312 153.296875 C 231.679688 153.652344 231.882812 154.027344 232.046875 154.425781 C 232.210938 154.820312 232.332031 155.230469 232.417969 155.648438 C 232.5 156.070312 232.542969 156.496094 232.542969 156.925781 Z M 232.542969 156.925781 " fill-opacity="1" fill-rule="nonzero"/><path fill="#101018" d="M 130.375 153.53125 C 127.902344 154.96875 125.292969 156.550781 124.058594 159.132812 C 123.628906 160.035156 123.398438 161.121094 123.835938 162.019531 C 124.296875 162.957031 125.394531 163.445312 126.4375 163.464844 C 127.480469 163.484375 128.484375 163.117188 129.457031 162.742188 C 131.582031 161.921875 133.683594 161.023438 135.664062 159.898438 C 136.808594 159.246094 137.9375 158.496094 138.691406 157.417969 C 139.449219 156.339844 139.765625 154.871094 139.195312 153.6875 C 138.566406 152.390625 137.027344 151.742188 135.585938 151.753906 C 134.144531 151.769531 132.695312 152.179688 130.375 153.53125 Z M 130.375 153.53125 " fill-opacity="1" fill-rule="nonzero"/><path fill="#101018" d="M 208.117188 143.242188 C 210.859375 144.039062 213.773438 144.949219 215.59375 147.15625 C 216.226562 147.925781 216.710938 148.925781 216.5 149.902344 C 216.28125 150.925781 215.332031 151.664062 214.324219 151.933594 C 213.320312 152.203125 212.253906 152.09375 211.21875 151.960938 C 208.960938 151.679688 206.703125 151.3125 204.511719 150.699219 C 203.246094 150.34375 201.96875 149.886719 200.976562 149.023438 C 199.984375 148.160156 199.320312 146.8125 199.59375 145.523438 C 199.890625 144.113281 201.230469 143.109375 202.628906 142.777344 C 204.03125 142.445312 205.539062 142.492188 208.117188 143.242188 Z M 208.117188 143.242188 " fill-opacity="1" fill-rule="nonzero"/><path fill="#101018" d="M 166.273438 156.640625 C 165.007812 156.640625 163.742188 156.183594 162.820312 155.339844 C 162.25 154.816406 162.214844 153.929688 162.734375 153.359375 C 163.257812 152.792969 164.140625 152.753906 164.710938 153.273438 C 165.292969 153.8125 166.28125 153.992188 167.058594 153.707031 C 167.808594 153.429688 168.394531 152.691406 168.449219 151.953125 C 168.503906 151.183594 169.167969 150.582031 169.945312 150.664062 C 170.714844 150.71875 171.292969 151.390625 171.234375 152.160156 C 171.097656 153.996094 169.808594 155.671875 168.027344 156.332031 C 167.464844 156.539062 166.867188 156.640625 166.273438 156.640625 Z M 166.273438 156.640625 " fill-opacity="1" fill-rule="nonzero"/><path fill="#101018" d="M 173.238281 155.792969 C 172.925781 155.792969 172.613281 155.761719 172.304688 155.703125 C 170.4375 155.34375 168.894531 153.898438 168.460938 152.109375 C 168.28125 151.359375 168.742188 150.601562 169.492188 150.421875 C 170.238281 150.238281 170.996094 150.699219 171.175781 151.453125 C 171.351562 152.171875 172.046875 152.804688 172.832031 152.953125 C 173.652344 153.113281 174.59375 152.773438 175.082031 152.148438 C 175.558594 151.539062 176.4375 151.429688 177.042969 151.910156 C 177.648438 152.386719 177.753906 153.269531 177.277344 153.878906 C 176.332031 155.082031 174.789062 155.792969 173.238281 155.792969 Z M 173.238281 155.792969 " fill-opacity="1" fill-rule="nonzero"/><path fill="#101018" d="M 172.910156 150.378906 C 173.320312 149.921875 173.75 149.425781 173.851562 148.820312 C 174.03125 147.78125 173.152344 146.796875 172.148438 146.480469 C 170.378906 145.921875 167.160156 146.558594 166.011719 147.292969 C 165.125 147.859375 164.53125 149.039062 164.972656 149.996094 C 165.230469 150.554688 165.769531 150.921875 166.285156 151.257812 C 167.480469 152.039062 168.492188 152.695312 169.816406 152.46875 C 171.015625 152.265625 172.132812 151.25 172.910156 150.378906 Z M 172.910156 150.378906 " fill-opacity="1" fill-rule="nonzero"/><path fill="#101018" d="M 162.769531 204.128906 C 146.007812 204.128906 129.539062 200.601562 121.425781 188.265625 C 116.347656 180.550781 113.886719 170.488281 114.492188 159.9375 C 116.128906 131.398438 135.542969 85.894531 182.304688 77.511719 C 239.628906 67.234375 265.980469 106.535156 276.585938 130.878906 C 280.804688 140.558594 281.976562 150.851562 279.890625 159.859375 C 273.375 187.980469 229.308594 195.054688 210.492188 198.074219 C 208.324219 198.421875 206.5 198.714844 205.125 198.976562 L 203.824219 199.226562 C 194.203125 201.078125 178.359375 204.128906 162.769531 204.128906 Z M 200.253906 78.648438 C 194.792969 78.648438 188.980469 79.160156 182.796875 80.269531 C 137.628906 88.367188 118.871094 132.445312 117.28125 160.097656 C 116.710938 170.050781 119.011719 179.511719 123.757812 186.726562 C 138.386719 208.96875 183.875 200.21875 203.296875 196.476562 L 204.597656 196.226562 C 205.996094 195.960938 207.847656 195.664062 210.050781 195.308594 C 228.3125 192.378906 271.078125 185.515625 277.167969 159.226562 C 279.121094 150.800781 278.003906 141.128906 274.027344 132 C 264.894531 111.042969 243.734375 78.648438 200.253906 78.648438 Z M 200.253906 78.648438 " fill-opacity="1" fill-rule="nonzero"/><path fill="#373737" d="M 228.214844 90.507812 C 239.484375 81.507812 253.035156 80.4375 262.703125 86.277344 C 272.375 92.121094 277.851562 103.574219 277.0625 114.5 C 276.648438 120.203125 274.242188 126.246094 269.65625 129.46875 C 269.261719 129.746094 253.363281 105.695312 228.214844 90.507812 Z M 228.214844 90.507812 " fill-opacity="1" fill-rule="nonzero"/><path fill="#101018" d="M 269.65625 130.867188 C 269.21875 130.867188 268.785156 130.660156 268.511719 130.269531 C 268.070312 129.636719 268.222656 128.765625 268.851562 128.320312 C 272.683594 125.628906 275.234375 120.421875 275.667969 114.398438 C 276.441406 103.707031 270.941406 92.890625 261.980469 87.476562 C 253.242188 82.203125 238.230469 82.230469 229.214844 91.484375 C 228.675781 92.039062 227.792969 92.046875 227.242188 91.507812 C 226.6875 90.96875 226.675781 90.082031 227.214844 89.527344 C 237.1875 79.292969 253.777344 79.25 263.425781 85.078125 C 273.261719 91.023438 279.304688 102.886719 278.457031 114.601562 C 277.960938 121.453125 274.96875 127.441406 270.457031 130.613281 C 270.214844 130.785156 269.933594 130.867188 269.65625 130.867188 Z M 269.65625 130.867188 " fill-opacity="1" fill-rule="nonzero"/><path fill="#f2e6e6" d="M 157 107.726562 C 156.960938 107.726562 156.921875 107.722656 156.882812 107.71875 C 156.117188 107.65625 155.542969 106.984375 155.605469 106.210938 C 156.023438 101.035156 158.070312 95.972656 161.363281 91.960938 C 161.851562 91.363281 162.734375 91.277344 163.328125 91.769531 C 163.925781 92.257812 164.011719 93.140625 163.519531 93.738281 C 160.585938 97.316406 158.765625 101.824219 158.390625 106.4375 C 158.332031 107.167969 157.71875 107.726562 157 107.726562 Z M 157 107.726562 " fill-opacity="1" fill-rule="nonzero"/><path fill="#f2e6e6" d="M 176.082031 98.414062 C 176.003906 98.414062 175.925781 98.40625 175.847656 98.394531 C 175.085938 98.265625 174.574219 97.542969 174.703125 96.78125 C 175.425781 92.480469 177.289062 88.433594 180.089844 85.089844 C 180.585938 84.496094 181.464844 84.414062 182.058594 84.914062 C 182.648438 85.410156 182.726562 86.292969 182.230469 86.886719 C 179.75 89.851562 178.101562 93.433594 177.457031 97.246094 C 177.34375 97.929688 176.753906 98.414062 176.082031 98.414062 Z M 176.082031 98.414062 " fill-opacity="1" fill-rule="nonzero"/><path fill="#f2e6e6" d="M 196.339844 94.378906 C 196.101562 94.378906 195.859375 94.320312 195.640625 94.191406 C 194.972656 93.800781 194.746094 92.945312 195.132812 92.277344 L 200.882812 82.355469 C 201.273438 81.691406 202.128906 81.464844 202.792969 81.851562 C 203.460938 82.238281 203.6875 83.09375 203.300781 83.761719 L 197.550781 93.683594 C 197.289062 94.132812 196.820312 94.378906 196.339844 94.378906 Z M 196.339844 94.378906 " fill-opacity="1" fill-rule="nonzero"/><path fill="#f2e6e6" d="M 183.878906 112.1875 C 183.796875 112.1875 183.710938 112.183594 183.625 112.164062 C 182.867188 112.023438 182.363281 111.292969 182.503906 110.535156 C 183.367188 105.890625 184.691406 101.316406 186.441406 96.933594 C 186.726562 96.214844 187.539062 95.863281 188.257812 96.152344 C 188.972656 96.441406 189.324219 97.257812 189.035156 97.972656 C 187.351562 102.1875 186.078125 106.582031 185.253906 111.042969 C 185.128906 111.71875 184.539062 112.1875 183.878906 112.1875 Z M 183.878906 112.1875 " fill-opacity="1" fill-rule="nonzero"/><path fill="#f2e6e6" d="M 167.835938 114.945312 C 167.152344 114.945312 166.554688 114.441406 166.457031 113.742188 C 165.941406 110.109375 166.304688 106.359375 167.511719 102.894531 C 167.769531 102.164062 168.566406 101.777344 169.292969 102.03125 C 170.023438 102.289062 170.40625 103.085938 170.152344 103.816406 C 169.089844 106.859375 168.769531 110.15625 169.222656 113.347656 C 169.332031 114.113281 168.800781 114.820312 168.035156 114.929688 C 167.96875 114.941406 167.902344 114.945312 167.835938 114.945312 Z M 167.835938 114.945312 " fill-opacity="1" fill-rule="nonzero"/><path fill="#f2e6e6" d="M 274.027344 222.003906 C 273.886719 222.003906 273.742188 221.984375 273.597656 221.9375 C 272.863281 221.699219 272.460938 220.910156 272.699219 220.175781 C 273.78125 216.832031 274.019531 213.234375 273.382812 209.777344 C 273.242188 209.019531 273.746094 208.289062 274.503906 208.148438 C 275.265625 207.992188 275.992188 208.511719 276.132812 209.273438 C 276.851562 213.183594 276.582031 217.253906 275.355469 221.039062 C 275.164062 221.628906 274.617188 222.003906 274.027344 222.003906 Z M 274.027344 222.003906 " fill-opacity="1" fill-rule="nonzero"/><path fill="#f2e6e6" d="M 264.757812 228.664062 C 264.453125 228.664062 264.148438 228.5625 263.890625 228.359375 C 263.285156 227.878906 263.1875 226.996094 263.664062 226.390625 C 266.125 223.296875 267.480469 219.253906 267.394531 215.296875 C 267.375 214.527344 267.988281 213.886719 268.757812 213.867188 C 269.523438 213.875 270.167969 214.460938 270.1875 215.234375 C 270.289062 219.832031 268.710938 224.535156 265.851562 228.132812 C 265.578125 228.480469 265.167969 228.664062 264.757812 228.664062 Z M 264.757812 228.664062 " fill-opacity="1" fill-rule="nonzero"/><path fill="#101018" d="M 268.542969 199.550781 C 268.535156 199.550781 268.527344 199.550781 268.519531 199.550781 C 267.75 199.539062 267.132812 198.902344 267.144531 198.128906 C 267.203125 194.308594 266.296875 190.5 264.523438 187.113281 C 264.164062 186.429688 264.425781 185.585938 265.109375 185.226562 C 265.792969 184.867188 266.636719 185.128906 266.996094 185.8125 C 268.984375 189.609375 270.003906 193.882812 269.9375 198.171875 C 269.925781 198.9375 269.304688 199.550781 268.542969 199.550781 Z M 268.542969 199.550781 " fill-opacity="1" fill-rule="nonzero"/><path fill="#f5f7ec" d="M 148.949219 191.898438 C 142.078125 189.574219 135.1875 187.445312 128.257812 185.488281 C 124.207031 184.34375 119.921875 186.285156 118.132812 190.105469 C 109.238281 209.09375 100.273438 227.640625 90.671875 245.84375 C 90.304688 246.539062 90.296875 247.363281 90.65625 248.066406 C 99.679688 265.742188 107.945312 284.398438 116.144531 303.171875 C 117.371094 305.980469 120.601562 307.3125 123.449219 306.191406 C 152.019531 294.929688 178.058594 284.605469 205.378906 271.363281 C 207.445312 270.359375 208.40625 267.925781 207.570312 265.777344 C 200.070312 246.519531 191.367188 225.257812 184 206.222656 C 183.808594 205.726562 183.429688 205.332031 182.941406 205.117188 C 179.675781 203.675781 176.410156 202.28125 173.144531 200.941406 C 165.082031 197.632812 157.027344 194.628906 148.949219 191.898438 " fill-opacity="1" fill-rule="nonzero"/><g clip-path="url(#bee06e90a2)"><path fill="#101018" d="M 121.347656 307.992188 C 118.613281 307.992188 116.03125 306.398438 114.867188 303.734375 C 106.621094 284.863281 98.472656 266.457031 89.414062 248.703125 C 88.847656 247.597656 88.859375 246.285156 89.4375 245.1875 C 97.800781 229.332031 106.257812 212.160156 116.867188 189.511719 C 118.949219 185.0625 123.902344 182.800781 128.636719 184.140625 C 135.671875 186.132812 142.65625 188.292969 149.394531 190.574219 C 157.582031 193.339844 165.75 196.394531 173.675781 199.648438 C 176.9375 200.988281 180.246094 202.398438 183.507812 203.835938 C 184.339844 204.203125 184.976562 204.875 185.300781 205.71875 C 189.179688 215.734375 193.496094 226.546875 197.675781 237.007812 C 201.433594 246.417969 205.316406 256.148438 208.871094 265.269531 C 209.964844 268.078125 208.699219 271.308594 205.984375 272.625 C 177.96875 286.203125 150.515625 297.027344 123.960938 307.492188 C 123.101562 307.832031 122.214844 307.992188 121.347656 307.992188 Z M 125.894531 186.558594 C 123.160156 186.558594 120.605469 188.117188 119.398438 190.699219 C 108.769531 213.394531 100.289062 230.601562 91.90625 246.496094 C 91.75 246.792969 91.746094 247.132812 91.898438 247.429688 C 100.996094 265.25 109.164062 283.703125 117.425781 302.609375 C 118.355469 304.742188 120.777344 305.746094 122.9375 304.886719 C 149.441406 294.441406 176.847656 283.640625 204.769531 270.101562 C 206.179688 269.421875 206.835938 267.746094 206.269531 266.285156 C 202.71875 257.175781 198.835938 247.453125 195.082031 238.046875 C 190.902344 227.582031 186.578125 216.757812 182.695312 206.726562 C 182.640625 206.582031 182.527344 206.464844 182.378906 206.398438 C 179.140625 204.96875 175.855469 203.566406 172.617188 202.238281 C 164.746094 199.003906 156.632812 195.972656 148.503906 193.226562 C 141.808594 190.960938 134.871094 188.8125 127.878906 186.835938 C 127.21875 186.648438 126.550781 186.558594 125.894531 186.558594 Z M 125.894531 186.558594 " fill-opacity="1" fill-rule="nonzero"/></g><path fill="#ee395c" d="M 125.085938 257.265625 C 117.941406 252.734375 106.960938 243.976562 101.554688 237.460938 C 96.148438 230.949219 92.679688 222.328125 94.164062 213.988281 C 95.808594 204.761719 103.910156 197.078125 113.195312 195.933594 C 122.0625 194.839844 131.328125 199.796875 135.898438 207.988281 C 136.085938 208.320312 136.585938 208.246094 136.632812 207.871094 C 137.523438 200.914062 142.347656 194.554688 148.855469 191.9375 C 155.769531 189.152344 164.222656 190.734375 169.671875 195.828125 C 175.117188 200.917969 176.828125 212.761719 174.535156 219.863281 L 157.167969 251.464844 L 148.429688 249.757812 L 142.785156 251.734375 L 137.511719 260.273438 Z M 125.085938 257.265625 " fill-opacity="1" fill-rule="nonzero"/><path fill="#101018" d="M 138.007812 262.523438 C 137.882812 262.523438 137.753906 262.507812 137.628906 262.46875 C 130.324219 260.421875 122.25 257.851562 114.4375 255.367188 C 106.648438 252.886719 98.597656 250.324219 91.339844 248.289062 C 90.597656 248.082031 90.164062 247.308594 90.371094 246.566406 C 90.582031 245.820312 91.347656 245.382812 92.09375 245.59375 C 99.398438 247.644531 107.472656 250.210938 115.285156 252.699219 C 123.074219 255.175781 131.125 257.742188 138.382812 259.773438 C 139.125 259.984375 139.558594 260.753906 139.351562 261.5 C 139.179688 262.117188 138.617188 262.523438 138.007812 262.523438 Z M 138.007812 262.523438 " fill-opacity="1" fill-rule="nonzero"/><path fill="#101018" d="M 157.511719 253.460938 C 157.300781 253.460938 157.089844 253.417969 156.890625 253.316406 C 156.199219 252.976562 155.917969 252.132812 156.257812 251.441406 C 163.871094 236.046875 173.746094 216.828125 182.613281 204.769531 C 183.070312 204.144531 183.941406 204.011719 184.566406 204.472656 C 185.1875 204.933594 185.320312 205.808594 184.863281 206.429688 C 176.125 218.3125 166.324219 237.390625 158.761719 252.683594 C 158.519531 253.175781 158.023438 253.460938 157.511719 253.460938 Z M 157.511719 253.460938 " fill-opacity="1" fill-rule="nonzero"/><g clip-path="url(#7a012d3ea7)"><path fill="#101018" d="M 119.078125 307.507812 C 118.898438 307.507812 118.714844 307.472656 118.535156 307.398438 C 117.824219 307.097656 117.492188 306.277344 117.789062 305.5625 L 138.628906 256.015625 C 140.933594 250.496094 147.011719 247.570312 152.757812 249.214844 C 168.175781 253.625 182.394531 258.75 197.453125 264.171875 C 200.910156 265.414062 204.386719 266.667969 207.910156 267.921875 C 208.636719 268.179688 209.015625 268.980469 208.757812 269.710938 C 208.5 270.4375 207.699219 270.8125 206.972656 270.558594 C 203.449219 269.304688 199.964844 268.050781 196.507812 266.804688 C 181.496094 261.398438 167.316406 256.292969 151.992188 251.90625 C 147.605469 250.644531 142.964844 252.882812 141.203125 257.101562 L 120.367188 306.652344 C 120.140625 307.1875 119.621094 307.507812 119.078125 307.507812 Z M 119.078125 307.507812 " fill-opacity="1" fill-rule="nonzero"/></g><path fill="#101018" d="M 125.085938 258.664062 C 124.828125 258.664062 124.570312 258.59375 124.339844 258.445312 C 116.886719 253.722656 105.925781 244.917969 100.480469 238.359375 C 94.160156 230.742188 91.359375 221.773438 92.789062 213.742188 C 94.554688 203.84375 103.066406 195.769531 113.027344 194.542969 C 121.558594 193.484375 130.5625 197.773438 135.742188 205.121094 C 137.421875 198.652344 142.15625 193.125 148.335938 190.636719 C 155.789062 187.632812 164.75 189.308594 170.621094 194.800781 C 176.546875 200.339844 178.273438 212.828125 175.863281 220.292969 C 175.625 221.03125 174.835938 221.433594 174.101562 221.195312 C 173.367188 220.957031 172.964844 220.167969 173.203125 219.433594 C 175.3125 212.902344 173.8125 201.613281 168.71875 196.851562 C 163.699219 192.15625 155.746094 190.671875 149.378906 193.234375 C 143.410156 195.636719 138.84375 201.589844 138.019531 208.046875 C 137.921875 208.8125 137.347656 209.421875 136.59375 209.566406 C 135.835938 209.722656 135.058594 209.355469 134.679688 208.671875 C 130.382812 200.972656 121.617188 196.304688 113.367188 197.320312 C 104.734375 198.386719 97.070312 205.65625 95.539062 214.234375 C 94.253906 221.449219 96.835938 229.589844 102.628906 236.566406 C 107.828125 242.832031 118.722656 251.574219 125.832031 256.082031 C 126.484375 256.496094 126.679688 257.359375 126.265625 258.011719 C 126 258.433594 125.546875 258.664062 125.085938 258.664062 Z M 137.117188 207.304688 Z M 137.117188 207.304688 " fill-opacity="1" fill-rule="nonzero"/><path fill="#373737" d="M 196.316406 221.925781 C 196.316406 221.925781 178.910156 244.628906 190.699219 253.347656 C 202.488281 262.0625 215.558594 251.253906 217.316406 249.347656 C 219.078125 247.441406 226.25 238.984375 225.390625 237.53125 C 224.535156 236.078125 214.433594 217.890625 196.316406 221.925781 Z M 196.316406 221.925781 " fill-opacity="1" fill-rule="nonzero"/><path fill="#101018" d="M 201.425781 257.757812 C 199.703125 257.757812 198.148438 257.5625 196.839844 257.296875 C 194.402344 256.800781 190.878906 255.835938 188.398438 253.15625 C 184.417969 248.859375 184.792969 242.050781 186.328125 237.523438 C 187.414062 234.320312 189.089844 231.421875 190.707031 228.625 C 191.5625 227.148438 192.445312 225.621094 193.214844 224.089844 C 193.558594 223.398438 194.398438 223.121094 195.089844 223.46875 C 195.777344 223.816406 196.054688 224.660156 195.710938 225.351562 C 194.902344 226.953125 194 228.515625 193.125 230.027344 C 191.503906 232.832031 189.972656 235.480469 188.972656 238.425781 C 187.6875 242.21875 187.300781 247.855469 190.449219 251.25 C 191.917969 252.839844 194.125 253.886719 197.394531 254.550781 C 204.238281 255.949219 214.121094 254.597656 222.351562 240.304688 C 222.734375 239.636719 223.589844 239.40625 224.257812 239.792969 C 224.925781 240.179688 225.15625 241.035156 224.769531 241.703125 C 217.203125 254.84375 208.050781 257.757812 201.425781 257.757812 Z M 201.425781 257.757812 " fill-opacity="1" fill-rule="nonzero"/></svg>